#N canvas -9 -9 1920 976 12;
#X msg 828 267 play;
#X msg 712 519 loop;
#X obj 563 475 adc~;
#X msg 612 459 record;
#X msg 716 565 stop;
#X msg 498 383 play;
#X msg 490 476 loop;
#X obj 341 432 adc~;
#X msg 412 406 record;
#X msg 494 522 stop;
#X msg 1023 283 play;
#X msg 1154 476 loop;
#X obj 1005 432 adc~;
#X msg 1076 406 record;
#X msg 1158 522 stop;
#X msg 1431 453 loop;
#X obj 1255 346 adc~;
#X msg 1353 383 record;
#X msg 1435 499 stop;
#X obj 1288 480 looper 4;
#X obj 798 171 O25TouchPad 2;
#X obj 376 203 O25TouchPad 1;
#X obj 602 242 O25TouchPad 6;
#X obj 1187 674 osc~;
#X obj 770 871 dac~;
#X obj 1679 636 notein 1;
#X obj 1705 706 sel 0;
#X obj 1668 731 mtof;
#X obj 1818 787 int;
#X obj 130 489 dac~;
#X obj 205 190 metro 500;
#X obj 209 147 tgl 15 0 empty empty empty 17 7 0 10 -262144 -1 -1 0
1;
#X obj 139 397 *~;
#X obj 186 329 vline~;
#X obj 111 243 osc~ 110;
#X msg 210 265 1 0 \, 0 50;
#X obj 569 546 looper 2;
#X msg 1354 327 play;
#X obj 808 788 /~ 4, f 5;
#X obj 449 778 +~;
#X obj 1026 683 +~;
#X obj 819 714 +~;
#X obj 368 545 looper 2;
#X obj 1011 503 looper 8;
#X obj 454 671 / 128;
#X obj 415 703 *~;
#X floatatom 542 696 5 0 0 0 - - -;
#X obj 439 615 ctlin 71 1;
#X connect 0 0 36 1;
#X connect 1 0 36 1;
#X connect 2 0 36 0;
#X connect 3 0 36 1;
#X connect 4 0 36 1;
#X connect 5 0 42 1;
#X connect 6 0 42 1;
#X connect 7 0 42 0;
#X connect 8 0 42 1;
#X connect 9 0 42 1;
#X connect 10 0 43 1;
#X connect 11 0 43 1;
#X connect 12 0 43 0;
#X connect 13 0 43 1;
#X connect 14 0 43 1;
#X connect 15 0 19 1;
#X connect 16 0 19 0;
#X connect 17 0 19 1;
#X connect 18 0 19 1;
#X connect 20 0 4 0;
#X connect 21 0 5 0;
#X connect 22 0 1 0;
#X connect 23 0 40 1;
#X connect 25 0 27 0;
#X connect 27 0 23 0;
#X connect 30 0 35 0;
#X connect 31 0 30 0;
#X connect 32 0 29 0;
#X connect 32 0 29 1;
#X connect 33 0 32 1;
#X connect 34 0 32 0;
#X connect 35 0 33 0;
#X connect 36 0 39 1;
#X connect 37 0 19 1;
#X connect 38 0 24 0;
#X connect 38 0 24 1;
#X connect 39 0 41 0;
#X connect 40 0 41 1;
#X connect 41 0 38 0;
#X connect 42 0 45 0;
#X connect 43 0 40 0;
#X connect 44 0 45 1;
#X connect 44 0 46 0;
#X connect 45 0 39 0;
#X connect 47 0 44 0;
