#N canvas -9 -9 1920 976 12;
#X obj 347 493 O25TouchPad 1;
#X obj 341 581 osc~ 440;
#X obj 369 378 /~ 3;
#X obj 340 297 *~;
#X obj 157 248 vline~;
#X msg 303 229;
#X msg 828 267 play;
#X obj 558 645 dac~;
#X msg 712 519 loop;
#X obj 563 475 adc~;
#X msg 634 449 record;
#X msg 716 565 stop;
#X obj 569 546 looper 1;
#X msg 917 271 play;
#X obj 876 641 dac~;
#X msg 1030 515 loop;
#X obj 881 471 adc~;
#X msg 952 445 record;
#X msg 1034 561 stop;
#X msg 990 271 play;
#X obj 1182 644 dac~;
#X msg 1336 518 loop;
#X obj 1187 474 adc~;
#X msg 1258 448 record;
#X msg 1340 564 stop;
#X obj 1193 545 looper 1;
#X obj 887 542 looper 4;
#X obj 1459 621 dac~;
#X msg 1613 495 loop;
#X obj 1437 388 adc~;
#X msg 1535 425 record;
#X msg 1617 541 stop;
#X obj 1470 522 looper 4;
#X obj 1009 854 +;
#X obj 798 172 O25TouchPad 3;
#X connect 0 0 1 0;
#X connect 6 0 12 1;
#X connect 8 0 12 1;
#X connect 9 0 12 0;
#X connect 10 0 12 1;
#X connect 11 0 12 1;
#X connect 12 0 7 0;
#X connect 12 0 7 1;
#X connect 13 0 26 1;
#X connect 15 0 26 1;
#X connect 16 0 26 0;
#X connect 17 0 26 1;
#X connect 18 0 26 1;
#X connect 19 0 25 1;
#X connect 21 0 25 1;
#X connect 22 0 25 0;
#X connect 23 0 25 1;
#X connect 24 0 25 1;
#X connect 25 0 20 0;
#X connect 25 0 20 1;
#X connect 26 0 14 0;
#X connect 26 0 14 1;
#X connect 28 0 32 1;
#X connect 29 0 32 0;
#X connect 30 0 32 1;
#X connect 31 0 32 1;
#X connect 32 0 27 0;
#X connect 32 0 27 1;
#X connect 34 0 6 0;
