#N canvas -9 -9 1920 976 12;
#X obj 292 28 inlet;
#X obj 569 22 loadbang;
#X obj 195 85 inlet~;
#X obj 562 80 array define \$0-looptable;
#X obj 569 144 pack \$1;
#X obj 569 202 array size \$0-looptable;
#X obj 569 174 * 44100;
#X obj 392 406 outlet~;
#X obj 860 75 s \$0-samplerate;
#X obj 627 144 r \$0-samplerate;
#X msg 860 54 44100;
#X obj 195 295 tabwrite~ \$0-looptable;
#X obj 250 210 bng 15 250 50 0 empty empty empty 17 7 0 10 -262144
-1 -1;
#X obj 393 226 bng 15 250 50 0 empty empty empty 17 7 0 10 -262144
-1 -1;
#X obj 278 99 symbol;
#X obj 564 115 bng 15 250 50 0 empty empty empty 17 7 0 10 -262144
-1 -1;
#X obj 393 297 tabplay~ \$0-looptable;
#X msg 334 202 stop;
#X obj 479 142 pack \$1;
#X obj 461 250 metro;
#X obj 279 136 sel record stop play loop;
#X obj 480 176 * 1000;
#X obj 417 174 t b b;
#X connect 0 0 14 0;
#X connect 1 0 3 0;
#X connect 1 0 10 0;
#X connect 1 0 18 0;
#X connect 2 0 11 0;
#X connect 3 0 15 0;
#X connect 4 0 6 0;
#X connect 6 0 5 0;
#X connect 9 0 6 1;
#X connect 10 0 8 0;
#X connect 12 0 11 0;
#X connect 13 0 16 0;
#X connect 14 0 20 0;
#X connect 15 0 4 0;
#X connect 16 0 7 0;
#X connect 17 0 16 0;
#X connect 17 0 19 0;
#X connect 18 0 21 0;
#X connect 19 0 16 0;
#X connect 20 0 12 0;
#X connect 20 0 17 0;
#X connect 20 1 17 0;
#X connect 20 2 13 0;
#X connect 20 3 22 0;
#X connect 21 0 19 1;
#X connect 22 0 19 0;
#X connect 22 1 17 0;
