#N canvas -8 0 1261 966 12;
#X obj 207 53 notein;
#X obj 298 355 outlet;
#X floatatom 210 143 5 0 0 0 - - -;
#X floatatom 390 292 5 0 0 0 - - -;
#X obj 372 76 pack \$0;
#X obj 532 8 loadbang;
#X obj 372 147 bng 15 250 50 0 empty empty empty 17 7 0 10 -262144
-1 -1;
#X obj 368 230 tabread \$0-lu;
#X obj 211 195 ==;
#X obj 207 228 sel 0 1;
#X obj 304 299 int;
#X obj 237 265 bng 15 250 50 0 empty empty empty 17 7 0 10 -262144
-1 -1;
#X floatatom 366 346 5 0 0 0 - - -;
#X obj 372 180 pack \$1;
#X floatatom 491 211 5 0 0 0 - - -;
#X obj 676 77 array define \$0-lu;
#X obj 614 38 bng 15 250 50 0 empty empty empty 17 7 0 10 -262144 -1
-1;
#X obj 402 43 delay 10;
#X floatatom 617 181 5 0 0 0 - - -;
#X msg 372 101 \; \$1-lu 0 0 36 38 42 46 50 45 51 49;
#X connect 0 0 2 0;
#X connect 0 1 10 1;
#X connect 2 0 8 0;
#X connect 4 0 19 0;
#X connect 4 0 18 0;
#X connect 5 0 16 0;
#X connect 6 0 13 0;
#X connect 7 0 8 1;
#X connect 7 0 3 0;
#X connect 8 0 9 0;
#X connect 9 1 11 0;
#X connect 10 0 12 0;
#X connect 10 0 1 0;
#X connect 11 0 10 0;
#X connect 13 0 7 0;
#X connect 13 0 14 0;
#X connect 16 0 15 0;
#X connect 16 0 17 0;
#X connect 17 0 4 0;
#X connect 19 0 6 0;
